# xmcd
# Track frame offsets:
# 150
# 15530
# 34232
# 53237
# 77990
# 94432
# 114020
# 135082
# 149752
# 175400
# 189372
# 205352
# 221367
#
# Disc length: 3278 seconds
# Revision: 0
# Processed by: cddbd v1.4PL0 Copyright (c) Steve Scherf et al.
# Submitted via: VisiTrax 2.9.5.181 - For more info visit www.synapsa.com
#
DISCID=b50ccc0d
DTITLE=Old Chicago Blues Band - Fourth Anniversary
DYEAR=1900
DGENRE=
TTITLE0=Cat Nap Later
TTITLE1=Why Get Up
TTITLE2=Someday Someway
TTITLE3=Thankyou
TTITLE4=I Thank The Fool
TTITLE5=All Your Love
TTITLE6=Bad Attitude
TTITLE7=Bad News
TTITLE8=Lowrider
TTITLE9=I Can Hear You Calling
TTITLE10=Too Tired
TTITLE11=Don't Lose Your Cool
TTITLE12=Superstition
EXTD=
EXTT0=
EXTT1=
EXTT2=
EXTT3=
EXTT4=
EXTT5=
EXTT6=
EXTT7=
EXTT8=
EXTT9=
EXTT10=
EXTT11=
EXTT12=
PLAYORDER=
